<svg xmlns="http://www.w3.org/2000/svg" width="1200" height="600">
  <text x="587" y="363" font-family="Riffic Bold" font-size="66" font-style="normal" font-weight="400" fill="#60b0f4" text-anchor="middle">CoordiSpot</text>
  <g transform="translate(1110, 355) scale(0.31561461794019935)">
    <path fill="#60b0f4" d="M229.729,311.303c0,0,17.769-15.252,17.769-46.604c0-31.351-17.92-46.604-40.103-46.604 c-20.747,0-40.104,17.465-40.104,46.604c0,32.42,17.92,46.604,39.175,46.604C212.018,357.303,229.729,344.254,229.729,311.303z M184.286,311.303c0,14.744,6.425,27.303,17.023,27.303c9.662,0,17.416-12.559,17.416-27.303c0-13.292-6.064-27.303-17.716-27.303 C190.693,284,184.286,298.011,184.286,311.303z"></path>
  </g>
</svg>
